name ./resultDataOpenSim/trcMotMarkerGrf/sub10/grf-14-03.mot
datacolumns 19
datarows 17
range 1.45200000 1.51600000
endheader

                time	     ground_force_vx	     ground_force_vy	     ground_force_vz	     ground_force_px	     ground_force_py	     ground_force_pz	   l_ground_force_vx	   l_ground_force_vy	   l_ground_force_vz	   l_ground_force_px	   l_ground_force_py	   l_ground_force_pz	     ground_torque_x	     ground_torque_y	     ground_torque_z	   l_ground_torque_x	   l_ground_torque_y	   l_ground_torque_z	
          1.45200000	        -14.40355683	        484.62974751	        -34.84435369	          0.88135280	          0.00000000	          0.05387603	          0.00000000	          0.00000000	          0.00000000	          0.00000000	          0.00000000	          0.00000000	          0.00000000	          2.13782757	          0.00000000	          0.00000000	          0.00000000	          0.00000000	
          1.45600000	        -13.46996085	        481.41138085	        -32.98276926	          0.88150431	          0.00000000	          0.05368800	          0.00000000	          0.00000000	          0.00000000	          0.00000000	          0.00000000	          0.00000000	          0.00000000	          2.20311110	          0.00000000	          0.00000000	          0.00000000	          0.00000000	
          1.46000000	        -12.44403103	        478.50161677	        -31.26379044	          0.88163405	          0.00000000	          0.05346875	          0.00000000	          0.00000000	          0.00000000	          0.00000000	          0.00000000	          0.00000000	          0.00000000	          2.27986415	          0.00000000	          0.00000000	          0.00000000	          0.00000000	
          1.46400000	        -11.01264732	        475.91091322	        -29.88408152	          0.88169263	          0.00000000	          0.05322978	          0.00000000	          0.00000000	          0.00000000	          0.00000000	          0.00000000	          0.00000000	          0.00000000	          2.36599349	          0.00000000	          0.00000000	          0.00000000	          0.00000000	
          1.46800000	         -8.98916567	        473.64713130	        -28.96757585	          0.88165960	          0.00000000	          0.05297996	          0.00000000	          0.00000000	          0.00000000	          0.00000000	          0.00000000	          0.00000000	          0.00000000	          2.45919107	          0.00000000	          0.00000000	          0.00000000	          0.00000000	
          1.47200000	         -6.35880354	        471.70833451	        -28.54634291	          0.88153923	          0.00000000	          0.05272543	          0.00000000	          0.00000000	          0.00000000	          0.00000000	          0.00000000	          0.00000000	          0.00000000	          2.55804517	          0.00000000	          0.00000000	          0.00000000	          0.00000000	
          1.47600000	         -3.27802090	        470.07328034	        -28.55817037	          0.88135300	          0.00000000	          0.05247215	          0.00000000	          0.00000000	          0.00000000	          0.00000000	          0.00000000	          0.00000000	          0.00000000	          2.66209889	          0.00000000	          0.00000000	          0.00000000	          0.00000000	
          1.48000000	         -0.02778296	        468.70577428	        -28.85962336	          0.88114143	          0.00000000	          0.05222312	          0.00000000	          0.00000000	          0.00000000	          0.00000000	          0.00000000	          0.00000000	          0.00000000	          2.77092129	          0.00000000	          0.00000000	          0.00000000	          0.00000000	
          1.48400000	          3.06669096	        467.57845178	        -29.25513059	          0.88095198	          0.00000000	          0.05197056	          0.00000000	          0.00000000	          0.00000000	          0.00000000	          0.00000000	          0.00000000	          0.00000000	          2.88297621	          0.00000000	          0.00000000	          0.00000000	          0.00000000	
          1.48800000	          5.72266375	        466.69055563	        -29.53743762	          0.88082565	          0.00000000	          0.05169861	          0.00000000	          0.00000000	          0.00000000	          0.00000000	          0.00000000	          0.00000000	          0.00000000	          2.99516605	          0.00000000	          0.00000000	          0.00000000	          0.00000000	
          1.49200000	          7.76491535	        466.06478647	        -29.52581701	          0.88079135	          0.00000000	          0.05139175	          0.00000000	          0.00000000	          0.00000000	          0.00000000	          0.00000000	          0.00000000	          0.00000000	          3.10337846	          0.00000000	          0.00000000	          0.00000000	          0.00000000	
          1.49600000	          9.15807868	        465.73683260	        -29.09545603	          0.88085215	          0.00000000	          0.05104259	          0.00000000	          0.00000000	          0.00000000	          0.00000000	          0.00000000	          0.00000000	          0.00000000	          3.20366877	          0.00000000	          0.00000000	          0.00000000	          0.00000000	
          1.50000000	         10.00997717	        465.75065121	        -28.20012177	          0.88100055	          0.00000000	          0.05065186	          0.00000000	          0.00000000	          0.00000000	          0.00000000	          0.00000000	          0.00000000	          0.00000000	          3.29338653	          0.00000000	          0.00000000	          0.00000000	          0.00000000	
          1.50400000	         10.54558830	        466.15539467	        -26.88511772	          0.88121908	          0.00000000	          0.05022541	          0.00000000	          0.00000000	          0.00000000	          0.00000000	          0.00000000	          0.00000000	          0.00000000	          3.37170574	          0.00000000	          0.00000000	          0.00000000	          0.00000000	
          1.50800000	         11.05103279	        466.99288853	        -25.28464613	          0.88145819	          0.00000000	          0.04977490	          0.00000000	          0.00000000	          0.00000000	          0.00000000	          0.00000000	          0.00000000	          0.00000000	          3.43944810	          0.00000000	          0.00000000	          0.00000000	          0.00000000	
          1.51200000	         11.80042789	        468.27985977	        -23.60109753	          0.88167385	          0.00000000	          0.04931749	          0.00000000	          0.00000000	          0.00000000	          0.00000000	          0.00000000	          0.00000000	          0.00000000	          3.49853123	          0.00000000	          0.00000000	          0.00000000	          0.00000000	
          1.51600000	         12.98981747	        470.00649826	        -22.06839157	          0.88183657	          0.00000000	          0.04887707	          0.00000000	          0.00000000	          0.00000000	          0.00000000	          0.00000000	          0.00000000	          0.00000000	          3.55151926	          0.00000000	          0.00000000	          0.00000000	          0.00000000	
